<?xml version="1.0" encoding="utf-8"?>
<!-- Generator: Adobe Illustrator 22.1.0, SVG Export Plug-In . SVG Version: 6.00 Build 0)  -->
<svg version="1.1" id="图层_1" xmlns="http://www.w3.org/2000/svg" xmlns:xlink="http://www.w3.org/1999/xlink" x="0px" y="0px"
	 viewBox="0 0 50 35" style="enable-background:new 0 0 50 35;" xml:space="preserve">
<style type="text/css">
	.st0{fill:none;stroke:#000000;stroke-width:0.25;stroke-miterlimit:10;}
</style>
<path class="st0" d="M46.2,20.7h-0.6c1.3-1.2,2.2-2.9,2.2-4.9c0-3.6-6.6-15.7-6.6-15.7s-6.6,12.1-6.6,15.7c0,1.9,0.9,3.7,2.2,4.9
	h-3.5c0.3-0.6,0.5-1.3,0.5-2c0-2.4-1.9-4.3-4.3-4.3H4.4c-2.4,0-4.3,1.9-4.3,4.3C0.1,21.1,2,23,4.4,23h12.8c-0.2,0.4-0.3,0.9-0.3,1.4
	c0,0.4,0.1,0.8,0.2,1.2h-4.6c-2.6,0-4.7,2.1-4.7,4.7c0,2.6,2.1,4.7,4.7,4.7H28c2.6,0,4.7-2.1,4.7-4.7c0-0.8-0.2-1.5-0.6-2.2h14.1
	c2,0,3.7-1.7,3.7-3.7C49.9,22.3,48.3,20.7,46.2,20.7z"/>
</svg>
