<?xml version="1.0" encoding="utf-8"?>
<!-- Generator: Adobe Illustrator 22.1.0, SVG Export Plug-In . SVG Version: 6.00 Build 0)  -->
<svg version="1.1" id="图层_1" xmlns="http://www.w3.org/2000/svg" xmlns:xlink="http://www.w3.org/1999/xlink" x="0px" y="0px"
	 viewBox="0 0 50 35" style="enable-background:new 0 0 50 35;" xml:space="preserve">
<style type="text/css">
	.st0{fill:none;stroke:#000000;stroke-width:0.25;stroke-miterlimit:10;}
</style>
<path class="st0" d="M25.1,19.8c-8.4,0-15.2,6.8-15.2,15.2h30.5C40.3,26.6,33.5,19.8,25.1,19.8z"/>
<rect x="22.8" y="9.8" class="st0" width="4.4" height="7.1"/>
<rect x="13.5" y="11.9" transform="matrix(0.9028 -0.4302 0.4302 0.9028 -5.1027 8.2666)" class="st0" width="4.4" height="7.1"/>
<rect x="6" y="17.7" transform="matrix(0.6299 -0.7766 0.7766 0.6299 -13.5107 14.2619)" class="st0" width="4.4" height="7.1"/>
<rect x="1.7" y="26.3" transform="matrix(0.2346 -0.9721 0.9721 0.2346 -26.0014 26.6979)" class="st0" width="4.4" height="7.1"/>
<rect x="32.1" y="11.9" transform="matrix(0.905 0.4255 -0.4255 0.905 9.8187 -13.115)" class="st0" width="4.4" height="7.1"/>
<rect x="39.5" y="17.7" transform="matrix(0.6379 0.7701 -0.7701 0.6379 31.4528 -24.4405)" class="st0" width="4.4" height="7.1"/>
<rect x="43.8" y="26.1" transform="matrix(0.2496 0.9684 -0.9684 0.2496 63.2216 -22.2827)" class="st0" width="4.4" height="7.1"/>
</svg>
